<svg xmlns="http://www.w3.org/2000/svg" width="120" height="120" viewBox="0 0 120 120">
    <g fill="none" fill-rule="evenodd">
        <path fill="#FE9870" d="M120 60c0 33.138-26.862 60-60 60-33.138 0-60-26.862-60-60C0 26.862 26.862 0 60 0c33.138 0 60 26.862 60 60z"/>
        <path fill="#FFF" d="M12.072 60c0-31.1 23.662-56.672 53.964-59.699A60.601 60.601 0 0 0 60 0C26.862 0 0 26.862 0 60c0 33.138 26.862 60 60 60 2.037 0 4.051-.103 6.036-.301-30.302-3.027-53.964-28.6-53.964-59.699z" opacity=".2"/>
        <path fill="#FFF" d="M95.855 60c0 19.802-16.053 35.855-35.855 35.855-19.802 0-35.855-16.053-35.855-35.855 0-19.802 16.053-35.855 35.855-35.855 19.802 0 35.855 16.053 35.855 35.855z"/>
        <path fill="#F7F7FB" d="M36.217 60c0-17.745 12.892-32.477 29.82-35.347A36.124 36.124 0 0 0 60 24.145c-19.802 0-35.855 16.053-35.855 35.855 0 19.802 16.053 35.855 35.855 35.855 2.057 0 4.073-.176 6.036-.508C49.11 92.477 36.217 77.745 36.217 60z"/>
        <g>
            <path fill="#D0D1D2" d="M18.245 119.865a6.398 6.398 0 0 1-6.394-6.625l3.036-85.412h6.716l3.035 85.412a6.397 6.397 0 0 1-6.393 6.625z"/>
            <path fill="#6CB6DE" d="M11.85 113.24a6.397 6.397 0 1 0 12.788 0L22.62 56.462H13.87L11.85 113.24z"/>
            <path fill="#61A3C7" d="M16.685 113.24l2.018-56.778h-4.834L11.85 113.24a6.397 6.397 0 0 0 8.81 6.15 6.4 6.4 0 0 1-3.976-6.15z"/>
            <path fill="#F2F3F3" d="M18.245 42.572c-7.25 0-13.128-6.702-13.128-14.969L7.896.863A.962.962 0 0 1 8.853 0h18.783c.493 0 .906.373.957.862l2.779 26.741c0 8.267-5.878 14.969-13.127 14.969z"/>
            <path fill="#E8E9EA" d="M9.952 27.603L12.82 0H8.853a.962.962 0 0 0-.957.862L5.117 27.603c0 8.267 5.877 14.97 13.128 14.97.826 0 1.633-.092 2.417-.258-6.095-1.295-10.71-7.387-10.71-14.712z"/>
            <path fill="#D0D1D2" d="M15.679 0v26.33a1.811 1.811 0 0 1-3.622 0V0h3.622zM24.431 0v26.33a1.811 1.811 0 0 1-3.622 0V0h3.622z"/>
            <path fill="#F27F6F" d="M111.616 119.962a5.615 5.615 0 0 1-5.616-5.615V42h9.121l2.11 31.558v40.788a5.615 5.615 0 0 1-5.615 5.616z"/>
            <path fill="#DF7566" d="M111.024 114.347V42H106v72.347a5.615 5.615 0 0 0 8.127 5.021 5.615 5.615 0 0 1-3.103-5.021z"/>
            <path fill="#F2F3F3" d="M116.908 73.648h-18.09A2.818 2.818 0 0 1 96 70.829v-35.07a40.559 40.559 0 0 1 19.42-34.614.978.978 0 0 1 1.488.834v71.669z"/>
            <path fill="#E8E9EA" d="M100.835 70.83V35.76a40.556 40.556 0 0 1 16.074-32.333V1.98a.978.978 0 0 0-1.488-.834A40.558 40.558 0 0 0 96 35.759v35.07a2.82 2.82 0 0 0 2.82 2.82h4.834a2.82 2.82 0 0 1-2.82-2.82z"/>
        </g>
    </g>
</svg>
